<svg width="21px" height="19px" viewBox="0 0 21 19" version="1.1" xmlns="http://www.w3.org/2000/svg" xmlns:xlink="http://www.w3.org/1999/xlink" xmlns:sketch="http://www.bohemiancoding.com/sketch/ns">
    <!-- Generator: Sketch 3.3.3 (12081) - http://www.bohemiancoding.com/sketch -->
    <title>prof-star-on</title>
    <desc>Created with Sketch.</desc>
    <defs/>
    <g id="Page-1" stroke="none" stroke-width="1" fill="none" fill-rule="evenodd" sketch:type="MSPage">
        <path d="M9.99621682,0 C9.58221682,0 9.16021682,0.242 9.00121682,0.714 L7.10721682,6.498 L1.00321682,6.498 C0.0172168193,6.498 -0.354783181,7.753 0.404216819,8.317 L5.34121682,11.887 L3.45221682,17.653 C3.16321682,18.364 3.78821682,18.967 4.44221682,18.967 C4.65121682,18.967 4.86221682,18.906 5.04821682,18.767 L9.97821682,15.203 L14.9152168,18.774 C15.1092168,18.928 15.3242168,18.995 15.5332168,18.995 C16.1862168,18.995 16.7802168,18.334 16.4852168,17.603 L14.6142168,11.887 L19.5432168,8.323 C20.3852168,7.826 19.9912168,6.498 18.9532168,6.498 L12.8492168,6.498 L10.9562168,0.72 L10.9462168,0.723 C10.8112168,0.238 10.4072168,0 9.99621682,0" id="prof-star-on" fill="#43B4B9" sketch:type="MSShapeGroup"/>
    </g>
</svg>