<svg width="21px" height="19px" viewBox="0 0 21 19" version="1.1" xmlns="http://www.w3.org/2000/svg" xmlns:xlink="http://www.w3.org/1999/xlink" xmlns:sketch="http://www.bohemiancoding.com/sketch/ns">
    <!-- Generator: Sketch 3.3.3 (12081) - http://www.bohemiancoding.com/sketch -->
    <title>prof-star-off</title>
    <desc>Created with Sketch.</desc>
    <defs/>
    <g id="Page-1" stroke="none" stroke-width="1" fill="none" fill-rule="evenodd" sketch:type="MSPage">
        <path d="M9.97821682,4.158 L10.9482168,7.12 C11.2172168,7.942 11.9842168,8.498 12.8492168,8.498 L15.8882168,8.498 L13.4422168,10.266 C12.7372168,10.776 12.4432168,11.683 12.7132168,12.509 L13.6592168,15.397 L11.1502168,13.582 C10.8002168,13.33 10.3892168,13.203 9.97821682,13.203 C9.56721682,13.203 9.15521682,13.33 8.80621682,13.582 L6.29521682,15.398 L7.24221682,12.51 C7.51221682,11.683 7.21821682,10.776 6.51321682,10.266 L4.06721682,8.498 L7.10721682,8.498 C7.97121682,8.498 8.73821682,7.942 9.00721682,7.12 L9.97821682,4.158 M9.99621682,0 C9.58221682,0 9.16021682,0.242 9.00121682,0.714 L7.10721682,6.498 L1.00321682,6.498 C0.0172168193,6.498 -0.354783181,7.753 0.404216819,8.317 L5.34121682,11.887 L3.45221682,17.653 C3.16321682,18.364 3.78821682,18.967 4.44221682,18.967 C4.65121682,18.967 4.86221682,18.906 5.04821682,18.767 L9.97821682,15.203 L14.9152168,18.774 C15.1092168,18.928 15.3242168,18.995 15.5332168,18.995 C16.1862168,18.995 16.7802168,18.334 16.4852168,17.603 L14.6142168,11.887 L19.5432168,8.323 C20.3852168,7.826 19.9912168,6.498 18.9532168,6.498 L12.8492168,6.498 L10.9562168,0.72 L10.9462168,0.723 C10.8112168,0.238 10.4072168,0 9.99621682,0" id="Imported-Layers" fill="#8C9AAA" sketch:type="MSShapeGroup"/>
    </g>
</svg>