<svg width="160px" height="120px" viewBox="0 0 160 120" version="1.1" xmlns="http://www.w3.org/2000/svg" xmlns:xlink="http://www.w3.org/1999/xlink">
    <!-- Generator: Sketch 3.8.3 (29802) - http://www.bohemiancoding.com/sketch -->
    <title>Slice 1</title>
    <desc>Created with Sketch.</desc>
    <defs/>
    <g id="Page-1" stroke="none" stroke-width="1" fill="none" fill-rule="evenodd">
        <g id="sprite-buttons">
            <g id="Page-1">
                <g id="Message" transform="translate(0.000000, 80.000000)">
                    <circle id="Oval-597" fill="#78C000" cx="20" cy="20" r="20"/>
                    <polygon id="Fill-5" fill="#FFFFFF" points="19 25 15 29 15 25 12 25 12 13 28 13 28 25"/>
                </g>
                <g id="Message" transform="translate(40.000000, 80.000000)">
                    <circle id="Oval-597" fill="#ECEEF1" cx="20" cy="20" r="20"/>
                    <polygon id="Fill-5" fill="#C2CDD2" points="19 25 15 29 15 25 12 25 12 13 28 13 28 25"/>
                </g>
                <g id="Message" transform="translate(80.000000, 80.000000)">
                    <circle id="Oval-597" fill="#78C000" cx="20" cy="20" r="20"/>
                    <polygon id="Fill-5" fill="#FFFFFF" points="19 25 15 29 15 25 12 25 12 13 28 13 28 25"/>
                </g>
                <g id="Call" transform="translate(0.000000, 40.000000)">
                    <circle id="Oval-597" fill="#78C000" cx="20" cy="20" r="20"/>
                    <path d="M29,24.4694786 C29,24.240209 28.8305861,23.8789143 28.7135809,23.7712002 C28.1426579,23.2455838 27.0854318,23.0255419 25.9550774,22.3813867 C24.8235042,21.7370542 24.7239105,21.9402381 24.5245488,22.0417413 C24.3237943,22.1432445 23.4626216,23.5140705 23.0485762,23.9522025 C22.7854885,24.2313364 22.4071367,24.1901672 22.262273,24.1456265 C19.0103278,23.0668885 16.4090501,18.8876881 16.4090501,18.8876881 C16.1085277,18.5830009 16.4090501,18.2467271 16.4090501,18.2467271 C16.9848483,17.6471127 17.2401009,17.3741897 17.5717899,16.9234586 C18.1710936,16.1078837 16.4414355,13.0934861 16.2096885,12.4491535 C15.9760262,11.8049984 14.7119515,12.0429632 14.7119515,12.0429632 C12.2403895,12.4269719 11.6424787,15.7618499 12.1843245,17.0599201 C15.49721,25.0142599 23.3485763,30.2647453 27.7442828,27.031193 C27.7442828,27.031193 27.7442828,27.031193 27.7442828,27.0313705 C27.7441087,27.0313705 29,26.3419648 29,24.4694786 L29,24.4694786 L29,24.4694786 Z" id="Phone" fill="#FFFFFF"/>
                </g>
                <g id="Call-Off" transform="translate(40.000000, 40.000000)">
                    <circle id="Oval-597" fill="#ECEEF1" cx="20" cy="20" r="20"/>
                    <path d="M29,24.4694786 C29,24.240209 28.8305861,23.8789143 28.7135809,23.7712002 C28.1426579,23.2455838 27.0854318,23.0255419 25.9550774,22.3813867 C24.8235042,21.7370542 24.7239105,21.9402381 24.5245488,22.0417413 C24.3237943,22.1432445 23.4626216,23.5140705 23.0485762,23.9522025 C22.7854885,24.2313364 22.4071367,24.1901672 22.262273,24.1456265 C19.0103278,23.0668885 16.4090501,18.8876881 16.4090501,18.8876881 C16.1085277,18.5830009 16.4090501,18.2467271 16.4090501,18.2467271 C16.9848483,17.6471127 17.2401009,17.3741897 17.5717899,16.9234586 C18.1710936,16.1078837 16.4414355,13.0934861 16.2096885,12.4491535 C15.9760262,11.8049984 14.7119515,12.0429632 14.7119515,12.0429632 C12.2403895,12.4269719 11.6424787,15.7618499 12.1843245,17.0599201 C15.49721,25.0142599 23.3485763,30.2647453 27.7442828,27.031193 C27.7442828,27.031193 27.7442828,27.031193 27.7442828,27.0313705 C27.7441087,27.0313705 29,26.3419648 29,24.4694786 L29,24.4694786 L29,24.4694786 Z" id="Phone" fill="#C2CDD2"/>
                </g>
                <g id="Call-Busy" transform="translate(80.000000, 40.000000)">
                    <circle id="Oval-597" fill="#ECEEF1" cx="20" cy="20" r="20"/>
                    <path d="M29,24.4694786 C29,24.240209 28.8305861,23.8789143 28.7135809,23.7712002 C28.1426579,23.2455838 27.0854318,23.0255419 25.9550774,22.3813867 C24.8235042,21.7370542 24.7239105,21.9402381 24.5245488,22.0417413 C24.3237943,22.1432445 23.4626216,23.5140705 23.0485762,23.9522025 C22.7854885,24.2313364 22.4071367,24.1901672 22.262273,24.1456265 C19.0103278,23.0668885 16.4090501,18.8876881 16.4090501,18.8876881 C16.1085277,18.5830009 16.4090501,18.2467271 16.4090501,18.2467271 C16.9848483,17.6471127 17.2401009,17.3741897 17.5717899,16.9234586 C18.1710936,16.1078837 16.4414355,13.0934861 16.2096885,12.4491535 C15.9760262,11.8049984 14.7119515,12.0429632 14.7119515,12.0429632 C12.2403895,12.4269719 11.6424787,15.7618499 12.1843245,17.0599201 C15.49721,25.0142599 23.3485763,30.2647453 27.7442828,27.031193 C27.7442828,27.031193 27.7442828,27.031193 27.7442828,27.0313705 C27.7441087,27.0313705 29,26.3419648 29,24.4694786 L29,24.4694786 L29,24.4694786 Z" id="Phone" fill="#C2CDD2"/>
                </g>
                <g id="Video">
                    <circle id="Oval-597" fill="#78C000" cx="20" cy="20" r="20"/>
                    <path d="M25,18 L25,22 L29,24 L30,24 L30,16 L29,16 L25,18 L25,18 Z M12,15.0024733 C12,14.4488226 12.4474894,14 12.9985023,14 L24.0014977,14 C24.5529553,14 25,14.455761 25,15.0024733 L25,24.9975267 C25,25.5511774 24.5525106,26 24.0014977,26 L12.9985023,26 C12.4470447,26 12,25.544239 12,24.9975267 L12,15.0024733 L12,15.0024733 Z" id="Shape" fill="#FFFFFF"/>
                </g>
                <g id="Video-Off" transform="translate(40.000000, 0.000000)">
                    <circle id="Oval-597" fill="#ECEEF1" cx="20" cy="20" r="20"/>
                    <path d="M25,18 L25,22 L29,24 L30,24 L30,16 L29,16 L25,18 L25,18 Z M12,15.0024733 C12,14.4488226 12.4474894,14 12.9985023,14 L24.0014977,14 C24.5529553,14 25,14.455761 25,15.0024733 L25,24.9975267 C25,25.5511774 24.5525106,26 24.0014977,26 L12.9985023,26 C12.4470447,26 12,25.544239 12,24.9975267 L12,15.0024733 L12,15.0024733 Z" id="Video" fill="#C2CDD2"/>
                </g>
                <g id="Video-Busy" transform="translate(80.000000, 0.000000)">
                    <circle id="Oval-597" fill="#ECEEF1" cx="20" cy="20" r="20"/>
                    <path d="M25,18 L25,22 L29,24 L30,24 L30,16 L29,16 L25,18 L25,18 Z M12,15.0024733 C12,14.4488226 12.4474894,14 12.9985023,14 L24.0014977,14 C24.5529553,14 25,14.455761 25,15.0024733 L25,24.9975267 C25,25.5511774 24.5525106,26 24.0014977,26 L12.9985023,26 C12.4470447,26 12,25.544239 12,24.9975267 L12,15.0024733 L12,15.0024733 Z" id="Video" fill="#C2CDD2"/>
                </g>
                <g id="button-arrange" transform="translate(120.000000, 0.000000)">
                    <g id="sprite-buttons-new">
                        <g id="Page-1">
                            <circle id="Oval-597" fill="#BBE07F" cx="20" cy="20" r="20"/>
                            <path d="M25,18 L25,22 L29,24 L30,24 L30,16 L29,16 L25,18 L25,18 L25,18 L25,18 L25,18 Z M12,15.0024733 C12,14.4488226 12.4474894,14 12.9985023,14 L24.0014977,14 C24.5529553,14 25,14.455761 25,15.0024733 L25,24.9975267 C25,25.5511774 24.5525106,26 24.0014977,26 L12.9985023,26 C12.4470447,26 12,25.544239 12,24.9975267 L12,15.0024733 L12,15.0024733 L12,15.0024733 L12,15.0024733 L12,15.0024733 Z" id="Video" fill="#FFFFFF"/>
                            <circle id="Oval-1" stroke="#696F7E" stroke-width="1.5" fill="#FFFFFF" cx="20" cy="28" r="7"/>
                            <path d="M22.5,30.5 L19.5,28.5" id="Line" stroke="#696F7E" stroke-width="1.5"/>
                            <path d="M19.75,24.5 L19.75,28.5" id="Line" stroke="#696F7E" stroke-width="1.5"/>
                        </g>
                    </g>
                </g>
            </g>
        </g>
    </g>
</svg>